#!OML:ASF H:\Terrain\Patient Classification 1\Walking\steve\steve.ASF
:FULLY-SPECIFIED
:DEGREES
61
root 6.75514 14.3897 -22.37 8.41638 4.44276 7.7419
lowerback 2.77594 -6.6791 -8.52828
upperback -2.47805 -9.29897 0.244639
thorax -2.75161 -4.44401 5.32612
lowerneck -10.7637 4.00818 2.84909
upperneck 13.1831 5.13323 -1.25447
head 5.8636 2.54027 -0.437303
rclavicle 7.82218e-014 4.01545e-014
rhumerus -80.5234 0.867087 -30.9172
rradius 20.9442
rwrist 4.04487
rhand -8.53568 -33.4032
rfingers 7.12502
rthumb 17.3934 -62.645
lclavicle 7.82218e-014 4.01545e-014
lhumerus 42.903 -8.08459 59.6193
lradius 36.5024
lwrist 28.7932
lhand -20.1321 -12.4482
lfingers 7.12502
lthumb 6.2123 17.4407
rfemur -61.1278 -0.0949991 14.3097
rtibia 32.4225
rfoot -18.6117 -2.77647
rtoes -16.8954
lfemur 29.6598 -1.97174 -30.6204
ltibia 7.63333e-014
lfoot 0.162364 -9.41952
ltoes 3.02857
62
root 6.75474 14.3631 -22.0907 8.63834 5.08824 7.42196
lowerback 2.72906 -6.81306 -7.85816
upperback -2.27782 -9.42879 0.410938
thorax -2.56916 -4.53758 5.11669
lowerneck -11.1793 3.75084 3.92929
upperneck 12.7672 4.77431 -2.5514
head 5.85499 2.31905 -1.04516
rclavicle 3.55079e-014 1.66979e-014
rhumerus -80.7783 -0.311332 -26.6467
rradius 19.9071
rwrist 7.48813
rhand -8.48534 -33.0515
rfingers 7.12502
rthumb 17.4418 -62.289
lclavicle 3.55079e-014 1.66979e-014
lhumerus 44.1416 -7.42737 59.2003
lradius 37.1533
lwrist 29.1237
lhand -19.979 -12.2201
lfingers 7.12502
lthumb 6.36006 17.6644
rfemur -61.7002 0.412323 13.3735
rtibia 32.8993
rfoot -19.6567 -3.21763
rtoes -15.4895
lfemur 30.4232 -2.52397 -30.0273
ltibia 5.08889e-014
lfoot 1.34734 -9.06396
ltoes 5.8488
63
root 6.75751 14.3241 -21.8 8.92224 5.77357 7.4374
lowerback 2.57063 -7.09594 -7.32025
upperback -2.1725 -9.76404 0.442445
thorax -2.40279 -4.72676 4.83188
lowerneck -10.3513 3.94182 3.89665
upperneck 11.4958 5.00286 -2.24675
head 5.31558 2.45914 -0.950254
rclavicle 4.48259e-014 1.51076e-014
rhumerus -80.9627 -1.01003 -23.0722
rradius 19.0798
rwrist 10.7348
rhand -8.45251 -32.8045
rfingers 7.12502
rthumb 17.4734 -62.0392
lclavicle 4.48259e-014 1.51076e-014
lhumerus 44.8767 -6.57448 58.5868
lradius 37.7975
lwrist 29.5882
lhand -19.6126 -11.9529
lfingers 7.12502
lthumb 6.71381 17.9207
rfemur -62.3189 0.315741 12.6731
rtibia 33.82
rfoot -20.5025 -3.42842
rtoes -16.9504
lfemur 31.0605 -3.12345 -29.8639
ltibia -5.725e-014
lfoot 1.52483 -8.73657
ltoes -3.48431
64
root 6.76048 14.2422 -21.5041 9.20432 6.15018 7.68103
lowerback 2.54131 -7.27607 -7.18229
upperback -2.18209 -9.99501 0.517816
thorax -2.37501 -4.84577 4.83132
lowerneck -10.1517 3.98681 3.72625
upperneck 10.9613 5.05636 -1.99974
head 5.10647 2.49642 -0.850603
rclavicle 9.39755e-014 -9.14409e-015
rhumerus -81.1185 -1.30849 -20.1206
rradius 18.5229
rwrist 13.3359
rhand -8.36499 -32.5728
rfingers 7.12502
rthumb 17.5576 -61.8
lclavicle 9.39755e-014 -9.14409e-015
lhumerus 45.4289 -5.70216 58.1282
lradius 38.4102
lwrist 30.0389
lhand -19.5536 -12.3029
lfingers 7.12502
lthumb 6.77076 17.5688
rfemur -63.0259 0.0365256 12.2638
rtibia 34.9785
rfoot -20.5843 -3.42063
rtoes -18.0174
lfemur 31.7617 -3.42761 -30.0281
ltibia 2.8625e-014
lfoot 1.74568 -8.14149
ltoes -11.8349
65
root 6.76631 14.1563 -21.2038 9.65292 6.36272 7.56233
lowerback 2.4298 -7.23579 -6.61047
upperback -2.20183 -9.90806 0.646751
thorax -2.41395 -4.81143 4.64721
lowerneck -10.6292 3.77236 4.03884
upperneck 10.7522 4.73937 -2.33052
head 5.12794 2.32866 -1.02101
rclavicle -2.92213e-014 2.62396e-014
rhumerus -81.719 -1.95479 -17.0705
rradius 18.1656
rwrist 15.5883
rhand -8.48543 -32.2947
rfingers 7.12502
rthumb 17.4417 -61.5322
lclavicle -2.92213e-014 2.62396e-014
lhumerus 46.1901 -5.27373 57.6244
lradius 39.2767
lwrist 30.6247
lhand -19.7656 -12.4044
lfingers 7.12502
lthumb 6.5661 17.4739
rfemur -63.849 0.0626579 12.0747
rtibia 36.2486
rfoot -20.7008 -3.3942
rtoes -17.0762
lfemur 32.322 -3.56749 -29.806
ltibia 4.45278e-014
lfoot 2.63693 -7.28581
ltoes -13.3508
